<svg xmlns="http://www.w3.org/2000/svg" xmlns:xlink="http://www.w3.org/1999/xlink" version="1.1" width="256" height="256" viewBox="0 0 256 256" xml:space="preserve">

<defs>
</defs>
<g style="stroke: none; stroke-width: 0; stroke-dasharray: none; stroke-linecap: butt; stroke-linejoin: miter; stroke-miterlimit: 10; fill: none; fill-rule: nonzero; opacity: 1;" transform="translate(1.4065934065934016 1.4065934065934016) scale(2.81 2.81)" >
	<path d="M 36.022 54.831 H 5.435 C 2.438 54.831 0 52.394 0 49.396 V 5.435 C 0 2.438 2.438 0 5.435 0 h 30.587 c 2.997 0 5.435 2.438 5.435 5.435 v 43.962 C 41.457 52.394 39.019 54.831 36.022 54.831 z M 5.435 4 C 4.644 4 4 4.644 4 5.435 v 43.962 c 0 0.791 0.644 1.435 1.435 1.435 h 30.587 c 0.791 0 1.435 -0.644 1.435 -1.435 V 5.435 C 37.457 4.644 36.813 4 36.022 4 H 5.435 z" style="stroke: none; stroke-width: 1; stroke-dasharray: none; stroke-linecap: butt; stroke-linejoin: miter; stroke-miterlimit: 10; fill: rgb(0,0,0); fill-rule: nonzero; opacity: 1;" transform=" matrix(1 0 0 1 0 0) " stroke-linecap="round" />
	<path d="M 36.022 90 H 5.435 C 2.438 90 0 87.563 0 84.565 V 69.179 c 0 -2.997 2.438 -5.435 5.435 -5.435 h 30.587 c 2.997 0 5.435 2.438 5.435 5.435 v 15.387 C 41.457 87.563 39.019 90 36.022 90 z M 5.435 67.744 C 4.644 67.744 4 68.388 4 69.179 v 15.387 C 4 85.356 4.644 86 5.435 86 h 30.587 c 0.791 0 1.435 -0.644 1.435 -1.435 V 69.179 c 0 -0.791 -0.644 -1.435 -1.435 -1.435 H 5.435 z" style="stroke: none; stroke-width: 1; stroke-dasharray: none; stroke-linecap: butt; stroke-linejoin: miter; stroke-miterlimit: 10; fill: rgb(0,0,0); fill-rule: nonzero; opacity: 1;" transform=" matrix(1 0 0 1 0 0) " stroke-linecap="round" />
	<path d="M 84.565 90 H 53.978 c -2.997 0 -5.435 -2.438 -5.435 -5.435 V 40.604 c 0 -2.997 2.438 -5.434 5.435 -5.434 h 30.588 c 2.997 0 5.435 2.438 5.435 5.434 v 43.962 C 90 87.563 87.563 90 84.565 90 z M 53.978 39.169 c -0.791 0 -1.435 0.644 -1.435 1.434 v 43.962 c 0 0.791 0.644 1.435 1.435 1.435 h 30.588 C 85.356 86 86 85.356 86 84.565 V 40.604 c 0 -0.791 -0.644 -1.434 -1.435 -1.434 H 53.978 z" style="stroke: none; stroke-width: 1; stroke-dasharray: none; stroke-linecap: butt; stroke-linejoin: miter; stroke-miterlimit: 10; fill: rgb(0,0,0); fill-rule: nonzero; opacity: 1;" transform=" matrix(1 0 0 1 0 0) " stroke-linecap="round" />
	<path d="M 84.565 26.256 H 53.978 c -2.997 0 -5.435 -2.438 -5.435 -5.435 V 5.435 C 48.543 2.438 50.98 0 53.978 0 h 30.588 C 87.563 0 90 2.438 90 5.435 v 15.387 C 90 23.818 87.563 26.256 84.565 26.256 z M 53.978 4 c -0.791 0 -1.435 0.644 -1.435 1.435 v 15.387 c 0 0.791 0.644 1.435 1.435 1.435 h 30.588 c 0.791 0 1.435 -0.644 1.435 -1.435 V 5.435 C 86 4.644 85.356 4 84.565 4 H 53.978 z" style="stroke: none; stroke-width: 1; stroke-dasharray: none; stroke-linecap: butt; stroke-linejoin: miter; stroke-miterlimit: 10; fill: rgb(0,0,0); fill-rule: nonzero; opacity: 1;" transform=" matrix(1 0 0 1 0 0) " stroke-linecap="round" />
</g>
</svg>